<svg xmlns="http://www.w3.org/2000/svg" width="16" height="16" viewBox="0 0 16 16"><path fill="#272727" d="M14.153 3.78C13.751 1.398 11.577-.194 9.298.227S5.093 2.48 5.496 4.863c.086.513.326 1.315.61 1.892l-4.14 6.178c-.153.228-.239.639-.194.913l.266 1.577a.488.488 0 0 0 .56.411l1.213-.225c.262-.047.595-.278.739-.511l1.638-2.649.014-.018 1.109-.205 1.912-3.103c.628.111 1.53.074 2.062-.025 2.278-.421 3.27-2.936 2.867-5.319zm-2.02 1.222c-.627.936-1.267.277-2.162-.38-.895-.654-1.708-1.058-1.082-1.994s1.861-1.164 2.758-.508c.896.655 1.113 1.946.486 2.882z"/></svg>