<svg width="792" height="145" viewBox="0 0 792 145" xmlns="http://www.w3.org/2000/svg" xmlns:xlink="http://www.w3.org/1999/xlink"><title>g14</title><defs><path id="a" d="M.148 77.66h223.328V.588H.148z"/></defs><g fill="none" fill-rule="evenodd"><g transform="matrix(1 0 0 -1 404.667 125.707)"><mask id="b" fill="#fff"><use xlink:href="#a"/></mask><g mask="url(#b)"><path d="M154.293 50.5c-3.865 31.71 69.828 39.45 69.18 2.633-5.408.042-13.295-1.272-16.624 0-2.48 4.276-1.81 8.376-6.972 11.052-10.212 5.306-30.01-.483-28.424-10 .783-4.628 11.105-5.943 18.235-7.368 15.082-3.092 34.792-7.61 26.813-26.864-10.345-24.932-75.415-29.296-74.008 7.917h16.09c.76-3.684 1.14-7.039 3.218-9.473 7.62-8.926 39.395-7.083 38.076 6.841-.916 9.65-35.15 8.881-42.367 17.895-1.362 1.71-2.905 4.868-3.217 7.368M77.603 49.557c-4.29.023-7.306-1.272-11.799-1.052.29 10.372-8.69 15.526-17.696 15.788-20.513.615-32.893-14.933-34.86-32.102C9.63.503 51.728 5.26 60.978 25.327c3.866.306 6.034-1.075 9.653-1.031-5.206-9.188-10.078-14.165-17.698-17.893C32.041-3.883 2.701 2.147.377 24.296-2.48 51.509 21.83 71.64 49.18 71.661c15.172.023 27.753-6.446 28.423-22.104" fill="#A7A5A6"/></g></g><path d="M374.478 108.513c-9.62 8.89-33.353 12.853-40.221-1.067-6.036-12.228 1.77-30.09 10.196-37.89 4.884-4.533 10.832-6.977 18.228-7.894 9.696-1.205 19.96 2.117 23.056 10.003 5.396 13.698-3.626 29.801-11.26 36.848M361.615 54.83c-6.883.78-14.17 2.748-19.304 5.775-17.476 10.315-34.056 45.657-10.735 58.961 27.168 15.479 64.618-8.134 67.576-35.274 2.53-23.018-13.88-32.083-37.537-29.462M650.678 95.437l13.403-19.985 4.277 19.985h-17.68zm27.343-38.948l-15.537.53s-32.415 45.022-48.279 67.376h15.552c4.737-5.712 8.496-12.368 12.87-18.423h27.89c1.635 5.93 2.492 12.63 4.293 18.423 5.538-.352 12.507.694 17.16-.52-5.216-21.911-13.949-67.386-13.949-67.386zM741.236 85.704l-21.264.339 4.812-17.366 21.438-.048s10.102.196 10.102 5.491c0 11.584-15.088 11.584-15.088 11.584m31.816-15.432c-1.66-8.375-9.232-11.755-19.148-13.037h-43.26l-17.558 67.237h17.18l7.015-27.363 15.957.463s1.176.348 1.744.587c1.136.492 2.108 1.352 2.948 2.46 5.16 9.82 8.852 23.853 8.852 23.853l17.69-.515s-5.74-21.181-13.415-28.956c11.763-2.952 24.817-10.621 21.995-24.729M553.885 56.584l-2.053 8.028-46.744-.114-5.903 20.497 37.738.05-1.8 7.32h-37.547l-6.437 24.237 49.013-.055-2.348 7.925h-60.613l17.704-67.888z" fill="#A7A5A6"/><path d="M303.081 84.731c-4.061 3.292-11.442 3.018-11.442 3.018l-27.166.646 5.891-24.21 27.67-.022s10.58.686 12.538 7.191c1.659 5.467-3.69 10.267-7.49 13.377m18.758-15.814c-1.479-7.239-11.145-12.332-22.577-12.332-17.224 0-38.563-.274-38.563-.274l-18.232 67.88h12.355l7.306-28.934 22.703.53s5.084 1.406 8.328 10.562c1.943 5.98 5.604 17.842 5.604 17.842l13.052.282s-5.66-23.66-16.777-30.802c14.31-1.326 29.865-9.788 26.801-24.754M223.834 84.47c-8.899 2.134-33.899 1.573-33.899 1.573l6.966-26.225s18.482-.95 26.808-1.027c7.676-.084 13.753 1.287 14.48 8.847.664 6.68-4.62 14.18-14.355 16.833m26.167-24.212c-3.019-6.496-10.19-9.517-19.268-10.821-1.612-.246-5.02-.548-5.02-.548s-26.547.322-39.003.322c-6.556 24.792-13.328 50.074-19.833 75.26h12.86c3.022-9.592 5.233-20.196 8.065-30.525 21.88.07 45.877 1.472 57.367-11.575 5.066-5.726 8.341-14.474 4.832-22.113" fill="#A7A5A6"/><path d="M45.758 28.291l2.553-.225 3.382-.25 3.968-.478h3.958l4.526.479 3.949.249 4.25.72 3.39.477-1.98 7.723h-1.697l-.835-.476h-.584l-5.085-.476-4.803-.488h-4.812l-4.519.72-4.257.72-4.23.97-3.673.97-3.393 1.212.275-.496.276-1.204.28-.975.558-.953.864-.964.56-.956.58-.976.842-.973 1.128-.96.842-.71.586-.73.553-.25.863-.728.549-.252.563-.225zM100.629 115.99l-2.556.251-3.385.238-3.97.496h-3.95l-4.523-.496-3.968-.238-4.247-.73-3.392-.488 1.998-7.714H74.316l.864.478h.554l5.094.473 4.822.479h4.783l4.536-.724 4.241-.706 4.234-.985 3.686-.959 3.388-1.201-.28.47-.285 1.22-.276.96-.563.973-.852.952-.572.969-.56.976-.848.95-1.136.98-.841.72-.573.717-.567.252-.85.72-.558.244-.572.245z" fill="#022E4D"/><path d="M111.921 83.983l-2.245-3.268-2.545-3.03-2.542-2.768-2.832-2.254-5.937-4.53-5.663-3.018-5.382-2.515-4.232-1.515-2.827-1.005-1.143-.499L91.56.221l5.095 1.758 6.228 2.261 5.669 2.77 5.092 3.018 5.079 3.523 4.808 3.781 4.517 3.767 3.967 4.022 3.678 4.528 2.814 4.278 2.84 4.528 1.974 4.776 1.699 4.78.85 4.772.291 5.041v2.51l-.292 2.266-.565 2.515-.843 2.264-.288 1.256-.28.996-.29.509-.282 1.019-.284.737-.56 1.019-.272 1.001-.857 1.001v4.529l-.279.995v1.019l-.285 1.004-.29 1.519-.283 1.24-.28 1.521-.571 1.267-.564 1.249-.561 1.756-.562.997-.568 1.511-.564 1.263V98.564l-.558 1.768-.29 1.755-.296 2.017-.554 1.995-.567 2.274-1.425 2.768-1.4 2.519-1.688 2.765-2.266 2.759-2.27 2.26-3.118 2.768-2.824 2.025-3.104 2-3.132 1.766-3.373 1.264-3.116 1.02-3.395 1.249-7.065 1.483-6.795.773H76.304l-5.665-.773-5.087-.991 2.261-8.045H68.66l6.224 1.004 5.66.246 5.649-.246 5.368-1.004 4.54-1.006 4.53-1.76 3.675-1.773 3.104-2.004 2.267-2.024 2.245-2.007 1.723-2.504 1.397-2.758 1.14-2.786.84-2.769.278-3.015v-5.026l-.278-1.764-.84-1.754-.57-1.51-.57-1.758-.834-2.017-1.158-1.756z" fill="#022E4D"/><path d="M108.397 86.836l.595.99.581.978.876 1.204.582.997.298 1.467.31.988.282 1.224.295.97-4.424.998-4.685.492-5.004.242H88.39l-4.702-.242-4.13-.748-3.824-.742 2.064-8.334h.869l1.772.506 2.643.236 4.125.243 4.417.499 5.294-.5 5.594-.242zM34.446 60.315l2.252 3.276 2.561 3.01 2.55 2.775 2.813 2.253 5.945 4.532 5.659 3.022 5.37 2.51 4.234 1.506 2.828 1.012 1.141.5-14.696 59.362-5.397-1.764-6.217-2.27-5.636-2.756-5.11-3.016-5.085-3.52-4.813-3.782-4.248-3.772-4.22-4.022-3.687-4.523-2.83-4.276-2.825-4.519-1.982-4.796-1.691-4.77-.841-4.782-.307-5.034v-2.51l.307-2.269.55-2.51.85-2.266.278-1.256.288-.996.282-.512.284-1.012.281-.756.563-1.004.294-1.001.844-1.003v-4.535l.29-1.005v-1.012l.277-.99.279-1.52.278-1.253.284-1.52.563-1.245.58-1.272.556-1.743.568-1.022.572-1.496.557-1.262V45.733l.572-1.762.279-1.758.284-2.014.57-2.022.554-2.252 1.41-2.782 1.429-2.51 1.697-2.766 2.256-2.778 2.545-2.254 2.831-2.755 2.839-2.02 3.092-2.013 3.124-1.764 3.377-1.248 3.116-1.008 3.396-1.266 7.08-1.502 6.784-.756h13.01l5.65.756 5.093 1.01-2.268 8.04h-.842l-6.232-.994-5.655-.264-5.653.264-5.074.994-4.813 1.011-4.532 1.779-3.687 1.736-3.096 2.02-2.277 2.01-2.252 2.02-1.703 2.515-1.406 2.759-1.14 2.764-.835 2.78-.29 3.004V47.737l.29 1.764.835 1.754.569 1.517.57 1.753.843 2.024 1.142 1.754z" fill="#022E4D"/><path d="M39.769 57.462l-.599-.98-.613-.987-.901-1.228-.587-.977-.304-1.47-.304-.987-.288-1.22-.308-.99 4.523-.977 4.797-.49 5.11-.226h9.95l4.817.225 4.207.744 3.917.724-2.1 8.342h-.922l-1.791-.483-2.703-.25-4.216-.242-4.512-.495-5.44.495-5.717.243z" fill="#022E4D"/><path d="M782.582 50.463h.61c.871 0 1.41-.034 1.62-.101a.95.95 0 0 0 .678-.921.892.892 0 0 0-.175-.551.977.977 0 0 0-.505-.348c-.22-.07-.76-.103-1.617-.103h-.611v2.024zm-1.504 4.214V47.26h1.504c1.413 0 2.207.006 2.37.02.5.042.889.14 1.162.294.283.156.51.395.697.71.184.324.278.676.278 1.066 0 .534-.178.994-.524 1.374-.351.378-.842.613-1.476.705a1.8 1.8 0 0 1 .521.279c.119.097.288.288.501.569.056.076.238.37.551.907l.875 1.492h-1.866l-.616-1.206c-.422-.808-.766-1.316-1.04-1.524-.276-.21-.62-.317-1.04-.317h-.393v3.047h-1.504zm3.16-9.36c-.953 0-1.881.244-2.759.72a5.316 5.316 0 0 0-2.085 2.072 5.622 5.622 0 0 0-.016 5.63 5.287 5.287 0 0 0 2.07 2.076 5.601 5.601 0 0 0 5.593 0 5.361 5.361 0 0 0 2.07-2.076 5.64 5.64 0 0 0 .75-2.801c0-.987-.252-1.928-.762-2.83a5.3 5.3 0 0 0-2.089-2.071c-.884-.476-1.807-.72-2.772-.72zm-.007-1.367c1.202 0 2.35.299 3.452.899a6.437 6.437 0 0 1 2.592 2.58c.626 1.117.942 2.288.942 3.509a6.997 6.997 0 0 1-.924 3.479 6.587 6.587 0 0 1-2.582 2.582 7.023 7.023 0 0 1-3.48.924 7.02 7.02 0 0 1-3.477-.924 6.6 6.6 0 0 1-2.58-2.582 6.985 6.985 0 0 1-.925-3.48c0-1.22.312-2.391.941-3.508a6.48 6.48 0 0 1 2.596-2.58 7.1 7.1 0 0 1 3.445-.9z" fill="#A7A5A6"/></g></svg>