<svg xmlns="http://www.w3.org/2000/svg" width="54" height="48" viewBox="0 0 54 48"><path fill="#444" d="M51 42.242c0 2.133 1.22 3.98 3 4.884v.747c-.498.068-1.007.104-1.523.104a11.123 11.123 0 0 1-8.096-3.481 15.08 15.08 0 0 1-3.88.504c-7.456 0-13.5-5.373-13.5-12s6.044-12 13.5-12 13.5 5.373 13.5 12c0 2.594-.926 4.996-2.501 6.959a5.444 5.444 0 0 0-.499 2.283zM10.813 10.368C7.709 12.89 6 16.133 6 19.5c0 1.889.524 3.721 1.559 5.445 1.067 1.777 2.671 3.402 4.64 4.699a5.999 5.999 0 0 1 2.633 4.12c.084.562.137 1.129.158 1.693.35-.29.691-.602 1.026-.936a6.001 6.001 0 0 1 4.999-1.709c.982.125 1.985.188 2.981.188v6c-1.272 0-2.52-.081-3.738-.236C15.103 43.919 8.949 44.844 3 44.979v-1.262C6.213 42.143 9 39.276 9 36c0-.457-.036-.906-.101-1.345C3.471 31.08 0 25.62 0 19.5 0 8.73 10.745 0 24 0c13.053 0 23.671 8.466 23.992 19.009a18.256 18.256 0 0 0-6.2-1.527c-.54-2.628-2.128-5.101-4.606-7.114-1.656-1.345-3.605-2.409-5.795-3.161C29.061 6.406 26.574 6 23.999 6s-5.062.406-7.392 1.207c-2.19.753-4.139 1.816-5.795 3.161z"/></svg>