<svg xmlns="http://www.w3.org/2000/svg" width="48" height="48" viewBox="0 0 48 48"><path fill="#444" d="M43.022 10.738c-1.041-1.42-2.493-3.08-4.086-4.674s-3.254-3.045-4.674-4.086C31.844.205 30.672 0 30 0H6.75A3.754 3.754 0 0 0 3 3.75v40.5A3.754 3.754 0 0 0 6.75 48h34.5A3.754 3.754 0 0 0 45 44.25V15c0-.672-.205-1.845-1.978-4.262zm-6.208-2.552c1.439 1.439 2.569 2.737 3.402 3.814h-7.217V4.784c1.077.833 2.376 1.963 3.814 3.402zM42 44.25a.76.76 0 0 1-.75.75H6.75a.76.76 0 0 1-.75-.75V3.75A.76.76 0 0 1 6.75 3H30v10.5a1.5 1.5 0 0 0 1.5 1.5H42v29.25z"/><path fill="#444" d="M34.5 39h-21a1.5 1.5 0 0 1 0-3h21a1.5 1.5 0 0 1 0 3zM34.5 33h-21a1.5 1.5 0 0 1 0-3h21a1.5 1.5 0 0 1 0 3zM34.5 27h-21a1.5 1.5 0 0 1 0-3h21a1.5 1.5 0 0 1 0 3z"/></svg>