<svg xmlns="http://www.w3.org/2000/svg" width="48" height="48" viewBox="0 0 48 48"><path d="M44.009 18h2.99c.26 0 .52-.1.72-.29.39-.39.39-1.03 0-1.42-.271-.26-3.62-4.29-3.62-4.29s3.35-4.03 3.62-4.29c.39-.39.39-1.03 0-1.42-.2-.19-.46-.29-.72-.29h-4.811c-2.189-3.6-6.16-6-10.68-6-6.9 0-12.5 5.6-12.5 12.5 0 4.14-3.36 7.5-7.5 7.5H1.989c-1.101 0-2 .9-2 2l.01.27c.89 8.7 6.979 15.9 15.01 18.59v4.64a2.5 2.5 0 0 0 5 0v-3.59a22.135 22.135 0 0 0 4 0v3.59a2.5 2.5 0 0 0 5 0v-4.64c8.72-2.921 15-11.16 15-20.86v-2zm-12-9.5a2.5 2.5 0 0 1 5 0 2.5 2.5 0 0 1-5 0zm-7.76 14.76c1.41 3.061.859 6.801-1.66 9.32a8.239 8.239 0 0 1-9.19 1.71l-.32-.17a2.01 2.01 0 0 1-1.069-1.78c0-.59.25-1.12.65-1.49.199-.18 8.27-8.26 8.27-8.26a2.01 2.01 0 0 1 2.85 0c.12.12.23.25.311.39l.158.28z"/></svg>