<svg xmlns="http://www.w3.org/2000/svg" width="16" height="16" viewBox="0 0 16 16"><path fill="#272727" d="M6.18 1.717c-.813.605-1.031 1.562-.991 2.072.051.623.178 1.434.178 1.434s-.25.136-.25.683c.087 1.374.546.781.641 1.383.227 1.451.746 1.193.746 1.985 0 1.319-.544 1.936-2.242 2.667-1.704.734-3.461 1.658-3.461 3.258v.8h14.4v-.8c0-1.6-1.758-2.524-3.462-3.258-1.698-.731-2.241-1.347-2.241-2.667 0-.792.518-.534.746-1.985.095-.602.554-.01.642-1.383 0-.547-.251-.683-.251-.683s.126-.811.177-1.434a2.471 2.471 0 0 0-1.84-2.477c-.266-.272-.446-.705.373-1.139-1.792-.084-2.209.854-3.163 1.543z"/></svg>