<svg xmlns="http://www.w3.org/2000/svg" width="48" height="48" viewBox="0 0 48 48"><path fill="#444" d="M4.5 22.125h26.719l-1.313-.75H4.5zm0-1.5h24.094l-1.313-.75H4.5zm0-1.5h21.469l-1.313-.75H4.5zm0-1.5h18.844l-1.313-.75H4.5zm0 6h29.344l-1.313-.75H4.5zm0 1.5h31.969l-1.313-.75H4.5zm0 1.5h34.594l-1.313-.75H4.5zm0-18h3.094l-1.313-.75H4.5zm0 18.75v.75h37.219l-1.313-.75zm0-17.25h5.719l-1.313-.75H4.5zm0 1.5h8.344l-1.313-.75H4.5zm0 3h13.594l-1.313-.75H4.5zm0-1.5h10.969l-1.313-.75H4.5zm0 3h16.219l-1.313-.75H4.5zM0 3v30h48V3H0zm45 27H3V6h42v24zm-13.5 6h-15L15 42l-3 3h24l-3-3z"/></svg>