<svg xmlns="http://www.w3.org/2000/svg" width="21" height="21" viewBox="0 0 21 21"><path fill="#272727" d="M18.576 4.961c-.528-3.126-3.381-5.215-6.372-4.663-2.992.551-5.519 2.957-4.991 6.085.112.673.428 1.726.801 2.483L2.58 16.975c-.201.299-.314.839-.254 1.198l.35 2.07a.643.643 0 0 0 .735.54l1.592-.295c.344-.062.781-.365.97-.671l2.149-3.477.019-.023 1.455-.269 2.51-4.073c.824.146 2.008.097 2.707-.033 2.99-.552 4.291-3.854 3.763-6.981zm-2.652 1.604c-.823 1.228-1.663.363-2.838-.499-1.175-.859-2.242-1.388-1.42-2.617.823-1.228 2.442-1.528 3.619-.667 1.176.86 1.461 2.554.638 3.782z"/></svg>