<svg xmlns="http://www.w3.org/2000/svg" width="21" height="21" viewBox="0 0 21 21"><path fill="#272727" d="M20.368 7.786L12.552 5.69 11.184.586c-.114-.426-.572-.674-1.022-.555L.632 2.585c-.449.12-.72.565-.606.991L3.417 16.23c.114.426.571.675 1.02.553l3.794-1.015-.517 1.93c-.114.426.156.872.606.99l8.516 2.283c.449.121.905-.127 1.021-.555l3.118-11.638c.113-.426-.157-.871-.607-.99zM1.715 3.813l8.222-2.201 3.043 11.359-8.222 2.201L1.715 3.813zm14.747 15.573L9.307 17.43l.563-2.102 4.096-1.099c.449-.119.722-.564.607-.99L12.99 7.331l6.244 1.713-2.772 10.344z"/></svg>