<?xml version="1.0" encoding="utf-8"?>
<!-- Generated by IcoMoon.io -->
<!DOCTYPE svg PUBLIC "-//W3C//DTD SVG 1.1//EN" "http://www.w3.org/Graphics/SVG/1.1/DTD/svg11.dtd">
<svg version="1.1" xmlns="http://www.w3.org/2000/svg" xmlns:xlink="http://www.w3.org/1999/xlink" width="16" height="16" viewBox="0 0 16 16">
<path fill="#272727" d="M6.18 1.717c-0.813 0.605-1.031 1.562-0.991 2.072 0.051 0.623 0.178 1.434 0.178 1.434s-0.25 0.136-0.25 0.683c0.087 1.374 0.546 0.781 0.641 1.383 0.227 1.451 0.746 1.193 0.746 1.985 0 1.319-0.544 1.936-2.242 2.667-1.704 0.734-3.461 1.658-3.461 3.258v0.8h14.4v-0.8c0-1.6-1.758-2.524-3.462-3.258-1.698-0.731-2.241-1.347-2.241-2.667 0-0.792 0.518-0.534 0.746-1.985 0.095-0.602 0.554-0.010 0.642-1.383 0-0.547-0.251-0.683-0.251-0.683s0.126-0.811 0.177-1.434c0.052-0.654-0.318-2.049-1.84-2.477-0.266-0.272-0.446-0.705 0.373-1.139-1.792-0.084-2.209 0.854-3.163 1.543z"></path>
</svg>
