<?xml version="1.0" encoding="utf-8"?>
<!-- Generated by IcoMoon.io -->
<!DOCTYPE svg PUBLIC "-//W3C//DTD SVG 1.1//EN" "http://www.w3.org/Graphics/SVG/1.1/DTD/svg11.dtd">
<svg version="1.1" xmlns="http://www.w3.org/2000/svg" xmlns:xlink="http://www.w3.org/1999/xlink" width="16" height="16" viewBox="0 0 16 16">
<path fill="#272727" d="M14.153 3.78c-0.402-2.382-2.576-3.974-4.855-3.553s-4.205 2.253-3.802 4.636c0.086 0.513 0.326 1.315 0.61 1.892l-4.14 6.178c-0.153 0.228-0.239 0.639-0.194 0.913l0.266 1.577c0.046 0.274 0.298 0.458 0.56 0.411l1.213-0.225c0.262-0.047 0.595-0.278 0.739-0.511l1.638-2.649 0.014-0.018 1.109-0.205 1.912-3.103c0.628 0.111 1.53 0.074 2.062-0.025 2.278-0.421 3.27-2.936 2.867-5.319zM12.133 5.002c-0.627 0.936-1.267 0.277-2.162-0.38-0.895-0.654-1.708-1.058-1.082-1.994s1.861-1.164 2.758-0.508c0.896 0.655 1.113 1.946 0.486 2.882z"></path>
</svg>
