<?xml version="1.0" encoding="utf-8"?>
<!-- Generated by IcoMoon.io -->
<!DOCTYPE svg PUBLIC "-//W3C//DTD SVG 1.1//EN" "http://www.w3.org/Graphics/SVG/1.1/DTD/svg11.dtd">
<svg version="1.1" xmlns="http://www.w3.org/2000/svg" xmlns:xlink="http://www.w3.org/1999/xlink" width="16" height="16" viewBox="0 0 16 16">
<path fill="#272727" d="M1.259 4.229c0.39 0.21 5.798 3.115 6 3.223s0.462 0.159 0.725 0.159c0.262 0 0.523-0.051 0.725-0.159s5.61-3.014 6-3.223c0.391-0.21 0.761-1.029 0.043-1.029h-13.535c-0.718 0-0.348 0.818 0.042 1.029zM14.89 5.991c-0.444 0.231-5.91 3.079-6.182 3.222s-0.462 0.159-0.725 0.159-0.453-0.017-0.725-0.159-5.706-2.991-6.15-3.222c-0.312-0.163-0.309 0.028-0.309 0.175s0 5.834 0 5.834c0 0.336 0.453 0.8 0.8 0.8h12.8c0.347 0 0.8-0.464 0.8-0.8 0 0 0-5.686 0-5.834s0.003-0.338-0.31-0.175z"></path>
</svg>
