<?xml version="1.0" encoding="UTF-8"?>
<svg width="792px" height="145px" viewBox="0 0 792 145" version="1.1" xmlns="http://www.w3.org/2000/svg" xmlns:xlink="http://www.w3.org/1999/xlink">
    <!-- Generator: Sketch 40.3 (33839) - http://www.bohemiancoding.com/sketch -->
    <title>g14</title>
    <desc>Created with Sketch.</desc>
    <defs>
        <polygon id="path-1" points="0.147999996 77.6599981 223.475994 77.6599981 223.475994 0.587999985 0.147999996 0.587999985"></polygon>
    </defs>
    <g id="Page-1" stroke="none" stroke-width="1" fill="none" fill-rule="evenodd">
        <g id="g14" transform="translate(395.833330, 71.873345) scale(1, -1) translate(-395.833330, -71.873345) translate(-0.666670, -0.626655)">
            <g id="g20" transform="translate(405.333323, 18.666666)">
                <g id="g38">
                    <g id="g36-Clipped">
                        <mask id="mask-2" fill="white">
                            <use xlink:href="#path-1"></use>
                        </mask>
                        <g id="path24"></g>
                        <g id="g36" mask="url(#mask-2)">
                            <g transform="translate(-1.333333, -1.333333)">
                                <g id="g30" transform="translate(143.626263, 1.167333)">
                                    <path d="M11.9999997,50.6666654 C8.13466646,82.3759979 81.827998,90.1159977 81.179998,53.2986653 C75.7719981,53.341332 67.8853316,52.0266654 64.5559984,53.2986653 C62.0759984,57.5746652 62.7466651,61.6746651 57.5839986,64.3506651 C47.3719988,69.6573316 27.574666,63.8679984 29.1599993,54.3506653 C29.9426659,49.7226654 40.2653323,48.4079988 47.3946655,46.9826655 C62.4773318,43.8906656 82.1866646,39.3733323 74.2079981,20.1186662 C63.8626651,-4.81333321 -1.20666664,-9.1773331 0.199999995,28.0359993 L16.2893329,28.0359993 C17.0493329,24.3519994 17.4293329,20.9973328 19.5079995,18.5626662 C27.1279993,9.63733309 58.9026652,11.4799997 57.5839986,25.4039994 C56.6679986,35.0533325 22.4346661,34.2853325 15.217333,43.2986656 C13.8546663,45.0093322 12.3119997,48.1666655 11.9999997,50.6666654" id="path28" fill="#A7A5A6"></path>
                                </g>
                                <g id="g34" transform="translate(0.269467, 1.557333)">
                                    <path d="M78.6666647,49.3333321 C74.3759981,49.3559988 71.3613315,48.0613321 66.8679983,48.2813321 C67.158665,58.6533319 58.1773319,63.8066651 49.1719988,64.0693317 C28.658666,64.6839984 16.2786663,49.1359988 14.3119996,31.9666659 C10.6933331,0.27866666 52.7919987,5.03733321 62.0426651,25.102666 C65.9079984,25.4093327 68.0759983,24.0279994 71.6946649,24.0719994 C66.4893317,14.8839996 61.6173318,9.90666642 53.997332,6.17866651 C33.1053325,-4.10666656 3.76533324,1.92266662 1.4413333,24.0719994 C-1.4173333,51.2853321 22.8933328,71.4159982 50.2439987,71.4373315 C65.4159984,71.4599982 77.9973314,64.990665 78.6666647,49.3333321" id="path32" fill="#A7A5A6"></path>
                                </g>
                            </g>
                        </g>
                    </g>
                </g>
            </g>
            <g id="g40" transform="translate(320.477859, 19.860666)" fill="#A7A5A6">
                <path d="M54.6666653,15.9999996 C45.0466655,7.10933316 21.3133328,3.14666659 14.445333,17.0666662 C8.40933312,29.2946659 16.2159996,47.1559988 24.6413327,54.9559986 C29.5253326,59.4893318 35.4733324,61.9333318 42.8693323,62.8506651 C52.565332,64.0559984 62.8293318,60.7333318 65.9253317,52.8479987 C71.3213316,39.1493324 62.2999984,23.0466661 54.6666653,15.9999996 M41.8026656,69.6813316 C34.9199991,68.9013316 27.6333326,66.9333317 22.4986661,63.9066651 C5.02266654,53.5919987 -11.557333,18.2493329 11.7639997,4.94533321 C38.931999,-10.5333331 76.3813314,13.0799997 79.339998,40.219999 C81.8706646,63.2373318 65.4599984,72.3026649 41.8026656,69.6813316" id="path42"></path>
            </g>
            <g id="g44" transform="translate(614.011718, 19.602800)" fill="#A7A5A6">
                <path d="M37.3333324,29.3333326 L50.7359987,49.3186654 L55.013332,29.3333326 L37.3333324,29.3333326 Z M64.6759984,68.2813316 L49.1386654,67.750665 C49.1386654,67.750665 16.7239996,22.7293328 0.859999978,0.375999991 L16.4119996,0.375999991 C21.1493328,6.08799985 24.9079994,12.7439997 29.2813326,18.7986662 L57.1719986,18.7986662 C58.8066652,12.869333 59.6639985,6.16933318 61.4653318,0.375999991 C67.002665,0.727999982 73.9719982,-0.318666659 78.6253314,0.895999978 C73.4093315,22.8066661 64.6759984,68.2813316 64.6759984,68.2813316 L64.6759984,68.2813316 Z" id="path46"></path>
            </g>
            <g id="g48" transform="translate(692.569049, 18.669333)" fill="#A7A5A6">
                <path d="M49.3333321,39.999999 L28.0693326,39.6613323 L32.8813325,57.0266652 L54.3199986,57.0746652 C54.3199986,57.0746652 64.4213317,56.8786652 64.4213317,51.5839987 C64.4213317,39.999999 49.3333321,39.999999 49.3333321,39.999999 M81.1493313,55.4319986 C79.4893313,63.8066651 71.9173315,67.186665 62.0013318,68.4693316 L18.7413329,68.4693316 L1.18399997,1.23199997 L18.3639995,1.23199997 L25.378666,28.594666 L41.335999,28.1319993 C41.335999,28.1319993 42.5119989,27.7839993 43.0799989,27.5453326 C44.2159989,27.0533327 45.1879989,26.1933327 46.0279988,25.0853327 C51.1879987,15.265333 54.8799986,1.23199997 54.8799986,1.23199997 L72.5693315,1.74666662 C72.5693315,1.74666662 66.8293317,22.9279994 59.1546652,30.7026659 C70.9173316,33.6546658 83.9719979,41.323999 81.1493313,55.4319986" id="path50"></path>
            </g>
            <g id="g52" transform="translate(477.218788, 19.789066)" fill="#A7A5A6">
                <polygon id="path54" points="77.3333314 67.9999983 75.2799981 59.9719985 28.5359993 60.0866652 22.6333328 39.5893323 60.3706652 39.539999 58.5706652 32.2186659 21.0239995 32.2186659 14.5866663 7.98266647 63.5999984 8.03733313 61.2519985 0.111999997 0.638666651 0.111999997 18.3426662 67.9999983"></polygon>
            </g>
            <g id="g56" transform="translate(242.414661, 19.641866)" fill="#A7A5A6">
                <path d="M61.3333318,39.999999 C57.2719986,36.7079991 49.8906654,36.9826657 49.8906654,36.9826657 L22.7253328,36.3359991 L28.6159993,60.5466652 L56.2853319,60.5679985 C56.2853319,60.5679985 66.866665,59.8826652 68.8239983,53.377332 C70.4826649,47.9106655 65.134665,43.1106656 61.3333318,39.999999 M80.091998,55.8146653 C78.6133314,63.0533318 68.9466649,68.146665 57.5146652,68.146665 C40.2906657,68.146665 18.9519995,68.4199983 18.9519995,68.4199983 L0.719999982,0.539999987 L13.0746663,0.539999987 L20.3813328,29.4746659 L43.0839989,28.9439993 C43.0839989,28.9439993 48.1679988,27.538666 51.4119987,18.3826662 C53.3546653,12.4026664 57.0159986,0.539999987 57.0159986,0.539999987 L70.0679982,0.25866666 C70.0679982,0.25866666 64.4079984,23.9186661 53.2906653,31.0599992 C67.6013316,32.3866659 83.1559979,40.847999 80.091998,55.8146653" id="path58"></path>
            </g>
            <g id="g60" transform="translate(167.167329, 18.569066)" fill="#A7A5A6">
                <path d="M57.3333319,41.3333323 C48.4346655,39.199999 23.4346661,39.7613323 23.4346661,39.7613323 L30.3999992,65.986665 C30.3999992,65.986665 48.8826654,66.9359983 57.2079986,67.0133317 C64.8839984,67.0973317 70.9613316,65.726665 71.6879982,58.1666652 C72.3519982,51.4866654 67.0679983,43.9866656 57.3333319,41.3333323 M83.4999979,65.5453317 C80.4813313,72.0413315 73.3106648,75.0626648 64.2319984,76.3666648 C62.6199984,76.6119981 59.2119985,76.9146647 59.2119985,76.9146647 C59.2119985,76.9146647 32.6653325,76.5919981 20.2093328,76.5919981 C13.653333,51.7999987 6.88133316,26.518666 0.375999991,1.33199997 L13.2359997,1.33199997 C16.2586663,10.9239997 18.4693329,21.5279995 21.3013328,31.8573325 C43.1813323,31.7879992 67.178665,30.3853326 78.667998,43.4319989 C83.7346646,49.1586654 87.0093312,57.9066652 83.4999979,65.5453317" id="path62"></path>
            </g>
            <g id="g64" transform="translate(35.757866, 104.081997)" fill="#022E4D">
                <polygon id="path66" points="10.6666664 11.9999997 13.2199997 12.225333 16.6013329 12.4746664 20.5693328 12.953333 24.5279994 12.953333 29.0533326 12.4746664 33.0026658 12.225333 37.2533324 11.505333 40.6426657 11.0279997 38.6626657 3.30533325 38.3746657 3.30533325 38.095999 3.30533325 37.8173324 3.30533325 37.5453324 3.30533325 36.9666657 3.30533325 36.1306658 3.78133324 35.8346658 3.78133324 35.5466658 3.78133324 30.4613326 4.25733323 25.658666 4.74533321 20.8466661 4.74533321 16.3279996 4.02533323 12.0706664 3.30533325 7.84133314 2.33466661 4.1679999 1.3653333 0.774666647 0.15333333 1.04933331 0.649333317 1.3253333 1.85333329 1.60666663 2.82799993 2.16399995 3.78133324 3.02799992 4.74533321 3.58799991 5.70133319 4.1679999 6.67733317 5.00933321 7.65066648 6.13733318 8.61066645 6.97999983 9.31999977 7.56533314 10.0506664 8.11866646 10.2999997 8.98133311 11.0279997 9.53066643 11.2799997 10.0933331 11.505333"></polygon>
            </g>
            <g id="g68" transform="translate(70.628932, 27.050799)" fill="#022E4D">
                <polygon id="path70" points="30.6666659 1.3333333 28.110666 1.08133331 24.7253327 0.843999979 20.7559995 0.347999991 16.8066662 0.347999991 12.2826664 0.843999979 8.31466646 1.08133331 4.0679999 1.81066662 0.675999983 2.29999994 2.67333327 10.0133331 2.94533326 10.0133331 3.22399992 10.0133331 3.50399991 10.0133331 3.79199991 10.0133331 4.35333322 10.0133331 5.2173332 9.53599976 5.48799986 9.53599976 5.77199986 9.53599976 10.8653331 9.06266644 15.6879996 8.58399979 20.4706662 8.58399979 25.006666 9.30799977 29.2479993 10.0133331 33.4813325 10.9986664 37.1679991 11.957333 40.555999 13.1586663 40.275999 12.6879997 39.9906657 11.469333 39.7146657 10.5093331 39.151999 9.53599976 38.299999 8.58399979 37.7279991 7.61466648 37.1679991 6.6386665 36.3199991 5.68933319 35.1839991 4.70799988 34.3426658 3.9879999 33.7693325 3.27199992 33.2026658 3.01999992 32.3519992 2.29999994 31.7946659 2.05599995 31.2226659 1.81066662"></polygon>
            </g>
            <g id="g72" transform="translate(65.921198, 8.390666)" fill="#022E4D">
                <polygon id="path74" points="46.6666655 51.9999987 44.4213322 55.2679986 41.875999 58.2973319 39.3346657 61.0653318 36.5026658 63.3199984 30.5653326 67.8493316 24.902666 70.8679982 19.5199995 73.3826648 15.2879996 74.8973315 12.461333 75.9026648 11.3186664 76.4013314 26.3053327 135.76133 31.3999992 134.003997 37.6279991 131.742663 43.2973323 128.97333 48.3893321 125.954664 53.4679987 122.431997 58.2759985 118.650664 62.7933318 114.883997 66.7599983 110.861331 70.4386649 106.333331 73.2519982 102.055997 76.0933314 97.5279976 78.0666647 92.7519977 79.7653313 87.9719978 80.6146647 83.1999979 80.9066646 78.1586647 80.9066646 75.6493314 80.6146647 73.3826648 80.0493313 70.8679982 79.2066647 68.6039983 78.9186647 67.3479983 78.6386647 66.3519983 78.347998 65.842665 78.0666647 64.8239984 77.7826647 64.0866651 77.2226647 63.0679984 76.9506647 62.0666651 76.0933314 61.0653318 76.0933314 60.0573318 76.0933314 58.7919985 76.0933314 57.7866652 76.0933314 56.5359986 75.8146648 55.5413319 75.8146648 54.5226653 75.5293314 53.5186653 75.2399981 51.9999987 74.9559981 50.7599987 74.6759981 49.2386654 74.1053315 47.9719988 73.5413315 46.7226655 72.9799982 44.9666655 72.4186649 43.9693322 71.8506649 42.4586656 71.2866649 41.195999 71.2866649 40.1746657 71.2866649 38.6773324 71.2866649 37.4186657 70.7279982 35.6506658 70.4386649 33.8959992 70.1426649 31.8786659 69.5879983 29.8839993 69.0213316 27.6093326 67.5959983 24.8413327 66.1973317 22.3226661 64.5079984 19.5573328 62.2426651 16.7986662 59.9719985 14.5386663 56.8546652 11.7706664 54.0306653 9.74533309 50.9266654 7.74533314 47.7946655 5.97999985 44.4213322 4.71599988 41.3053323 3.69599991 37.9106657 2.44666661 30.8453326 0.963999976 24.0506661 0.190666662 17.2733329 0.190666662 11.0493331 0.190666662 5.38399987 0.963999976 0.297333326 1.95466662 2.5586666 9.99999975 2.8386666 9.99999975 3.11733326 9.99999975 3.40399991 9.99999975 9.62799976 8.99599978 15.2879996 8.74933311 20.9373328 8.99599978 26.3053327 9.99999975 30.8453326 11.0053331 35.3746658 12.765333 39.0506657 14.5386663 42.1546656 16.5426663 44.4213322 18.5666662 46.6666655 20.5733328 48.3893321 23.0773328 49.7866654 25.8359994 50.9266654 28.6213326 51.7666654 31.3906659 52.0439987 34.4053325 52.0439987 37.4186657 52.0439987 39.431999 51.7666654 41.195999 50.9266654 42.9493323 50.3573321 44.4599989 49.7866654 46.2173322 48.9519988 48.2346655 47.7946655 49.9906654"></polygon>
            </g>
            <g id="g76" transform="translate(75.730531, 46.871065)" fill="#022E4D">
                <polygon id="path78" points="33.3333325 10.6666664 33.9279992 9.67599976 34.5093325 8.69866645 35.3853324 7.49466648 35.9666658 6.49733317 36.2653324 5.03066654 36.5746658 4.04266657 36.8573324 2.8186666 37.1519991 1.84799995 32.7279992 0.850666645 28.042666 0.358666658 23.0386661 0.115999997 18.3146662 0.115999997 13.3266663 0.115999997 8.62533312 0.358666658 4.49466655 1.10666664 0.67066665 1.84799995 2.7346666 10.1826664 3.60399991 10.1826664 5.37599987 9.67599976 8.01866647 9.43999976 12.1439997 9.1973331 16.5613329 8.69866645 21.8546661 9.1973331 27.4493326 9.43999976"></polygon>
            </g>
            <g id="g80" transform="translate(0.446000, 0.058533)" fill="#022E4D">
                <polygon id="path82" points="34.6666658 83.9999979 36.9186657 80.723998 39.479999 77.7133314 42.0293323 74.9386648 44.8426655 72.6853315 50.7879987 68.1533316 56.4466653 65.1319984 61.8173318 62.6226651 66.050665 61.1159985 68.8786649 60.1039985 70.0199982 59.6039985 55.3239986 0.241333327 49.9266654 2.00533328 43.7093322 4.27599989 38.0733324 7.03199982 32.9639992 10.0479997 27.878666 13.5679997 23.0653328 17.3493329 18.8173329 21.1213328 14.597333 25.1439994 10.9106664 29.6666659 8.08133313 33.9426658 5.25599987 38.4613324 3.27333325 43.2573323 1.58266663 48.0279988 0.741333315 52.809332 0.434666656 57.8439986 0.434666656 60.3533318 0.741333315 62.6226651 1.29199997 65.1319984 2.14133328 67.398665 2.41999994 68.654665 2.70799993 69.6506649 2.98933326 70.1626649 3.27333325 71.1746649 3.55466658 71.9306649 4.11733323 72.9346648 4.41199989 73.9359982 5.25599987 74.9386648 5.25599987 75.9533314 5.25599987 77.2039981 5.25599987 78.2093314 5.25599987 79.4733313 5.54533319 80.4786647 5.54533319 81.4906646 5.82266652 82.4813313 6.10133318 83.9999979 6.37999984 85.2533312 6.66399983 86.7746645 7.22666649 88.0186645 7.80666647 89.2906644 8.36266646 91.0333311 8.93066644 92.0559977 9.50266643 93.5519977 10.0599997 94.813331 10.0599997 95.8119976 10.0599997 97.3279976 10.0599997 98.5813309 10.6319997 100.343997 10.9106664 102.101331 11.1946664 104.115997 11.765333 106.137331 12.3186664 108.389331 13.7279997 111.171997 15.157333 113.68133 16.8546662 116.447997 19.1106662 119.22533 21.6559995 121.479997 24.4866661 124.234664 27.3253327 126.254664 30.4173326 128.267997 33.5413325 130.031997 36.9186657 131.279997 40.0346657 132.287997 43.4306656 133.55333 50.5106654 135.055997 57.2946652 135.811997 64.0839984 135.811997 70.3039982 135.811997 75.9546648 135.055997 81.047998 134.04533 78.779998 126.00533 78.4973314 126.00533 78.2106647 126.00533 77.9373314 126.00533 71.7053315 126.999997 66.050665 127.263997 60.3973318 126.999997 55.3239986 126.00533 50.5106654 124.994664 45.9786655 123.215997 42.2919989 121.479997 39.195999 119.459997 36.9186657 117.450664 34.6666658 115.430664 32.9639992 112.914664 31.5573325 110.155997 30.4173326 107.391997 29.5826659 104.611997 29.2933326 101.607997 29.2933326 98.5813309 29.2933326 96.5773309 29.5826659 94.813331 30.4173326 93.0599977 30.9866659 91.5426644 31.5573325 89.7893311 32.3999992 87.7653311 33.5413325 86.0119978"></polygon>
            </g>
            <g id="g84" transform="translate(36.435599, 86.911464)" fill="#022E4D">
                <polygon id="path86" points="3.9999999 0 3.40133325 0.979999976 2.78799993 1.96666662 1.88666662 3.19466659 1.29999997 4.1719999 0.995999975 5.64133319 0.691999983 6.62933317 0.40399999 7.8479998 0.0959999976 8.83866645 4.61866655 9.81599975 9.41599976 10.3066664 14.5266663 10.5319997 19.3586662 10.5319997 24.4759994 10.5319997 29.2933326 10.3066664 33.4999992 9.56266643 37.4173324 8.83866645 35.3173325 0.497333321 34.3946658 0.497333321 32.6039992 0.979999976 29.9013326 1.2293333 25.6853327 1.47199996 21.1733328 1.96666662 15.7333329 1.47199996 10.0159997 1.2293333"></polygon>
            </g>
            <g id="g88" transform="translate(777.915314, 85.910131)" fill="#A7A5A6">
                <path d="M5.3333332,7.9999998 L5.94399985,7.9999998 C6.8146665,7.9999998 7.35333315,8.03466647 7.56399981,8.10133313 C7.77466647,8.1679998 7.9399998,8.28666646 8.0599998,8.45199979 C8.1839998,8.61733312 8.24133313,8.80666645 8.24133313,9.02266644 C8.24133313,9.2293331 8.18666646,9.41199976 8.06666647,9.57333309 C7.94533313,9.73466642 7.77733314,9.85466642 7.56133314,9.92133309 C7.34133315,9.99199975 6.80133316,10.0239997 5.94399985,10.0239997 L5.3333332,10.0239997 L5.3333332,7.9999998 Z M3.82933324,3.78666657 L3.82933324,11.2026664 L5.3333332,11.2026664 C6.7466665,11.2026664 7.53999981,11.1959997 7.70399981,11.1826664 C8.20399979,11.1399997 8.59199979,11.0426664 8.86533311,10.8879997 C9.14799977,10.7319997 9.37599977,10.4933331 9.56266643,10.1773331 C9.74666642,9.85466642 9.83999975,9.50266643 9.83999975,9.11199977 C9.83999975,8.57866645 9.66266643,8.11866646 9.31599977,7.73866647 C8.96533311,7.35999982 8.47466645,7.12533316 7.8399998,7.03333316 C8.06666647,6.94933316 8.24133313,6.8546665 8.36133312,6.7546665 C8.47999979,6.65733317 8.64933312,6.46666651 8.86266645,6.18533318 C8.91866644,6.10933318 9.09999977,5.81466652 9.4133331,5.27866653 L10.2879997,3.78666657 L8.42266646,3.78666657 L7.80666647,4.99199988 C7.38399982,5.79999986 7.03999982,6.30799984 6.7666665,6.51599984 C6.4906665,6.7266665 6.14666651,6.83333316 5.72666652,6.83333316 L5.3333332,6.83333316 L5.3333332,3.78666657 L3.82933324,3.78666657 Z M6.98933316,13.1466663 C6.03599985,13.1466663 5.10799987,12.9026663 4.23066656,12.4266664 C3.35199992,11.941333 2.6546666,11.2519997 2.14533328,10.3546664 C1.63599996,9.4533331 1.38266663,8.51199979 1.38266663,7.52533315 C1.38266663,6.54533317 1.62933329,5.61199986 2.12933328,4.72399988 C2.62133327,3.83866657 3.31599992,3.14266659 4.19866656,2.64799993 C5.09199987,2.14533328 6.02266652,1.89999995 6.98933316,1.89999995 C7.97066647,1.89999995 8.90266644,2.14533328 9.79199976,2.64799993 C10.6719997,3.14266659 11.3626664,3.83866657 11.8626664,4.72399988 C12.361333,5.61199986 12.6119997,6.54533317 12.6119997,7.52533315 C12.6119997,8.51199979 12.3599997,9.4533331 11.8506664,10.3546664 C11.3399997,11.2519997 10.6453331,11.941333 9.76133309,12.4266664 C8.87733311,12.9026663 7.95466647,13.1466663 6.98933316,13.1466663 L6.98933316,13.1466663 Z M6.98266649,14.513333 C8.1839998,14.513333 9.33199977,14.2146663 10.4346664,13.6146663 C11.537333,13.0159997 12.401333,12.1559997 13.0266663,11.0346664 C13.6519997,9.91733309 13.9679997,8.74666645 13.9679997,7.52533315 C13.9679997,6.30799984 13.6639997,5.1533332 13.0439997,4.04666657 C12.4306664,2.94399993 11.565333,2.08266661 10.4626664,1.46399996 C9.3613331,0.846666646 8.19733313,0.539999987 6.98266649,0.539999987 C5.76933319,0.539999987 4.60799988,0.846666646 3.50533325,1.46399996 C2.40266661,2.08266661 1.54133329,2.94399993 0.92533331,4.04666657 C0.303999992,5.1533332 0,6.30799984 0,7.52533315 C0,8.74666645 0.311999992,9.91733309 0.94133331,11.0346664 C1.56933329,12.1559997 2.43733327,13.0159997 3.53733324,13.6146663 C4.63599988,14.2146663 5.78799986,14.513333 6.98266649,14.513333 L6.98266649,14.513333 Z" id="path90"></path>
            </g>
        </g>
    </g>
</svg>