<?xml version="1.0" encoding="utf-8"?>
<!-- Generated by IcoMoon.io -->
<!DOCTYPE svg PUBLIC "-//W3C//DTD SVG 1.1//EN" "http://www.w3.org/Graphics/SVG/1.1/DTD/svg11.dtd">
<svg version="1.1" xmlns="http://www.w3.org/2000/svg" xmlns:xlink="http://www.w3.org/1999/xlink" width="21" height="21" viewBox="0 0 21 21">
<path fill="#272727" d="M6.005 15.488c-0.248 0-0.498-0.087-0.697-0.265l-5.313-4.723 5.608-4.985c0.433-0.383 1.096-0.347 1.482 0.087s0.347 1.097-0.087 1.483l-3.842 3.416 3.547 3.152c0.434 0.385 0.473 1.049 0.087 1.483-0.207 0.234-0.496 0.353-0.784 0.353zM15.397 15.485l5.608-4.985-5.313-4.723c-0.434-0.385-1.097-0.346-1.482 0.087-0.385 0.434-0.346 1.097 0.087 1.483l3.547 3.153-3.842 3.415c-0.434 0.385-0.473 1.049-0.087 1.483 0.207 0.234 0.496 0.353 0.784 0.353 0.248 0 0.498-0.087 0.697-0.265zM10.485 16.973l2.1-12.6c0.096-0.572-0.291-1.113-0.863-1.209-0.574-0.097-1.114 0.291-1.208 0.863l-2.1 12.6c-0.096 0.572 0.291 1.113 0.863 1.209 0.059 0.009 0.116 0.014 0.173 0.014 0.504 0 0.949-0.364 1.034-0.877z"></path>
</svg>
