<?xml version="1.0" encoding="utf-8"?>
<!-- Generated by IcoMoon.io -->
<!DOCTYPE svg PUBLIC "-//W3C//DTD SVG 1.1//EN" "http://www.w3.org/Graphics/SVG/1.1/DTD/svg11.dtd">
<svg version="1.1" xmlns="http://www.w3.org/2000/svg" xmlns:xlink="http://www.w3.org/1999/xlink" width="54" height="48" viewBox="0 0 54 48">
<path fill="#444444" d="M51 42.242c0 2.133 1.22 3.98 3 4.884v0.747c-0.498 0.068-1.007 0.104-1.523 0.104-3.188 0-6.063-1.337-8.096-3.481-1.229 0.327-2.531 0.504-3.88 0.504-7.456 0-13.5-5.373-13.5-12s6.044-12 13.5-12c7.456 0 13.5 5.373 13.5 12 0 2.594-0.926 4.996-2.501 6.959-0.32 0.695-0.499 1.468-0.499 2.283zM10.813 10.368c-3.104 2.522-4.813 5.765-4.813 9.132 0 1.889 0.524 3.721 1.559 5.445 1.067 1.777 2.671 3.402 4.64 4.699 1.423 0.937 2.38 2.435 2.633 4.12 0.084 0.562 0.137 1.129 0.158 1.693 0.35-0.29 0.691-0.602 1.026-0.936 1.132-1.132 2.662-1.757 4.242-1.757 0.252 0 0.504 0.016 0.757 0.048 0.982 0.125 1.985 0.188 2.981 0.188v6c-1.272-0-2.52-0.081-3.738-0.236-5.155 5.155-11.309 6.080-17.258 6.215v-1.262c3.213-1.574 6-4.441 6-7.717 0-0.457-0.036-0.906-0.101-1.345-5.428-3.575-8.899-9.035-8.899-15.155 0-10.77 10.745-19.5 24-19.5 13.053 0 23.671 8.466 23.992 19.009-1.926-0.859-4.024-1.379-6.2-1.527-0.54-2.628-2.128-5.101-4.606-7.114-1.656-1.345-3.605-2.409-5.795-3.161-2.33-0.801-4.817-1.207-7.392-1.207s-5.062 0.406-7.392 1.207c-2.19 0.753-4.139 1.816-5.795 3.161z"></path>
</svg>
