<?xml version="1.0" encoding="utf-8"?>
<!-- Generated by IcoMoon.io -->
<!DOCTYPE svg PUBLIC "-//W3C//DTD SVG 1.1//EN" "http://www.w3.org/Graphics/SVG/1.1/DTD/svg11.dtd">
<svg version="1.1" xmlns="http://www.w3.org/2000/svg" xmlns:xlink="http://www.w3.org/1999/xlink" width="48" height="48" viewBox="0 0 48 48">
<path fill="#444444" d="M33 0c-8.284 0-15 6.716-15 15 0 0.939 0.087 1.857 0.252 2.748l-18.252 18.252v9c0 1.657 1.343 3 3 3h3v-3h6v-6h6v-6h6l3.893-3.893c1.594 0.577 3.314 0.893 5.107 0.893 8.284 0 15-6.716 15-15s-6.716-15-15-15zM37.494 15.006c-2.485 0-4.5-2.015-4.5-4.5s2.015-4.5 4.5-4.5 4.5 2.015 4.5 4.5-2.015 4.5-4.5 4.5z"></path>
</svg>
