<?xml version="1.0" encoding="utf-8"?>
<!-- Generated by IcoMoon.io -->
<!DOCTYPE svg PUBLIC "-//W3C//DTD SVG 1.1//EN" "http://www.w3.org/Graphics/SVG/1.1/DTD/svg11.dtd">
<svg version="1.1" xmlns="http://www.w3.org/2000/svg" xmlns:xlink="http://www.w3.org/1999/xlink" width="48" height="48" viewBox="0 0 48 48">
<path fill="#444444" d="M4.5 22.125h26.719l-1.313-0.75h-25.406zM4.5 20.625h24.094l-1.313-0.75h-22.781zM4.5 19.125h21.469l-1.313-0.75h-20.156zM4.5 17.625h18.844l-1.313-0.75h-17.531zM4.5 23.625h29.344l-1.313-0.75h-28.031zM4.5 25.125h31.969l-1.313-0.75h-30.656zM4.5 26.625h34.594l-1.313-0.75h-33.281zM4.5 8.625h3.094l-1.313-0.75h-1.781zM4.5 27.375v0.75h37.219l-1.313-0.75zM4.5 10.125h5.719l-1.313-0.75h-4.406zM4.5 11.625h8.344l-1.313-0.75h-7.031zM4.5 14.625h13.594l-1.313-0.75h-12.281zM4.5 13.125h10.969l-1.313-0.75h-9.656zM4.5 16.125h16.219l-1.313-0.75h-14.906zM0 3v30h48v-30h-48zM45 30h-42v-24h42v24zM31.5 36h-15l-1.5 6-3 3h24l-3-3z"></path>
</svg>
