<?xml version="1.0" encoding="utf-8"?>
<!-- Generated by IcoMoon.io -->
<!DOCTYPE svg PUBLIC "-//W3C//DTD SVG 1.1//EN" "http://www.w3.org/Graphics/SVG/1.1/DTD/svg11.dtd">
<svg version="1.1" xmlns="http://www.w3.org/2000/svg" xmlns:xlink="http://www.w3.org/1999/xlink" width="16" height="16" viewBox="0 0 16 16">
<path fill="#272727" d="M15.558 2.974l-4.8-2.4c-0.225-0.113-0.49-0.113-0.716 0l-4.504 2.252-4.485-1.495c-0.245-0.082-0.512-0.041-0.721 0.11s-0.332 0.392-0.332 0.649v10.401c0 0.303 0.171 0.58 0.442 0.715l4.8 2.4c0.113 0.056 0.235 0.085 0.358 0.085s0.246-0.028 0.358-0.085l4.504-2.251 4.485 1.495c0.244 0.080 0.512 0.039 0.721-0.111s0.332-0.392 0.332-0.648v-10.402c0.001-0.303-0.17-0.58-0.442-0.715zM6.4 4.185l3.2-1.6v9.41l-3.2 1.6v-9.41zM1.6 3.2l3.2 1.066v9.329l-3.2-1.6v-8.795zM14.4 12.982l-3.2-1.067v-9.33l3.2 1.6v8.797z"></path>
</svg>
