<?xml version="1.0" encoding="utf-8"?>
<!-- Generated by IcoMoon.io -->
<!DOCTYPE svg PUBLIC "-//W3C//DTD SVG 1.1//EN" "http://www.w3.org/Graphics/SVG/1.1/DTD/svg11.dtd">
<svg version="1.1" xmlns="http://www.w3.org/2000/svg" xmlns:xlink="http://www.w3.org/1999/xlink" width="21" height="21" viewBox="0 0 21 21">
<path fill="#444444" d="M14.438 5.25h4.76c-0.103-0.165-0.226-0.349-0.376-0.552-0.455-0.621-1.090-1.347-1.788-2.045s-1.423-1.332-2.045-1.788c-0.204-0.149-0.387-0.273-0.552-0.376v4.76z"></path>
<path fill="#444444" d="M13.125 5.906v-5.906h-10.172c-0.905 0-1.641 0.736-1.641 1.641v17.719c0 0.905 0.736 1.641 1.641 1.641h15.094c0.905 0 1.641-0.736 1.641-1.641v-12.797h-5.906c-0.362 0-0.656-0.294-0.656-0.656z"></path>
</svg>
