<?xml version="1.0" encoding="utf-8"?>
<!-- Generated by IcoMoon.io -->
<!DOCTYPE svg PUBLIC "-//W3C//DTD SVG 1.1//EN" "http://www.w3.org/Graphics/SVG/1.1/DTD/svg11.dtd">
<svg version="1.1" xmlns="http://www.w3.org/2000/svg" xmlns:xlink="http://www.w3.org/1999/xlink" width="21" height="21" viewBox="0 0 21 21">
<path fill="#272727" d="M6.090 12.81v-6.51h-3.99c-1.155 0-2.1 0.945-2.1 2.1v6.3c0 1.155 0.945 2.1 2.1 2.1h1.050v3.15l3.15-3.15h5.25c1.155 0 2.1-0.945 2.1-2.1v-1.911c-0.067 0.015-0.139 0.022-0.21 0.022l-7.35-0.001zM18.9 1.050h-9.45c-1.155 0-2.1 0.945-2.1 2.1v8.4h7.35l3.15 3.15v-3.15h1.050c1.155 0 2.1-0.944 2.1-2.1v-6.3c0-1.155-0.945-2.1-2.1-2.1z"></path>
</svg>
