<?xml version="1.0" encoding="utf-8"?>
<!-- Generated by IcoMoon.io -->
<!DOCTYPE svg PUBLIC "-//W3C//DTD SVG 1.1//EN" "http://www.w3.org/Graphics/SVG/1.1/DTD/svg11.dtd">
<svg version="1.1" xmlns="http://www.w3.org/2000/svg" xmlns:xlink="http://www.w3.org/1999/xlink" width="21" height="21" viewBox="0 0 21 21">
<path fill="#272727" d="M20.368 7.786l-7.816-2.096-1.368-5.104c-0.114-0.426-0.572-0.674-1.022-0.555l-9.53 2.554c-0.449 0.12-0.72 0.565-0.606 0.991l3.391 12.654c0.114 0.426 0.571 0.675 1.020 0.553l3.794-1.015-0.517 1.93c-0.114 0.426 0.156 0.872 0.606 0.99l8.516 2.283c0.449 0.121 0.905-0.127 1.021-0.555l3.118-11.638c0.113-0.426-0.157-0.871-0.607-0.99zM1.715 3.813l8.222-2.201 3.043 11.359-8.222 2.201-3.043-11.359zM16.462 19.386l-7.155-1.956 0.563-2.102 4.096-1.099c0.449-0.119 0.722-0.564 0.607-0.99l-1.583-5.908 6.244 1.713-2.772 10.344z"></path>
</svg>
