<?xml version="1.0" encoding="utf-8"?>
<!-- Generated by IcoMoon.io -->
<!DOCTYPE svg PUBLIC "-//W3C//DTD SVG 1.1//EN" "http://www.w3.org/Graphics/SVG/1.1/DTD/svg11.dtd">
<svg version="1.1" xmlns="http://www.w3.org/2000/svg" xmlns:xlink="http://www.w3.org/1999/xlink" width="21" height="21" viewBox="0 0 21 21">
<path fill="#444444" d="M21 13.485c0-1.683-1.162-3.095-2.727-3.476-0.066-2.639-2.224-4.759-4.878-4.759-1.554 0-2.938 0.728-3.832 1.861-0.501-0.648-1.286-1.066-2.168-1.066-1.514 0-2.741 1.228-2.741 2.742 0 0.132 0.010 0.262 0.028 0.389-0.23-0.042-0.467-0.064-0.709-0.064-2.194-0-3.973 1.78-3.973 3.975s1.779 3.975 3.973 3.975l13.458-0c1.972-0.004 3.569-1.604 3.569-3.578z"></path>
</svg>
