<?xml version="1.0" encoding="utf-8"?>
<!-- Generated by IcoMoon.io -->
<!DOCTYPE svg PUBLIC "-//W3C//DTD SVG 1.1//EN" "http://www.w3.org/Graphics/SVG/1.1/DTD/svg11.dtd">
<svg version="1.1" xmlns="http://www.w3.org/2000/svg" xmlns:xlink="http://www.w3.org/1999/xlink" width="21" height="21" viewBox="0 0 21 21">
<path fill="#272727" d="M18.576 4.961c-0.528-3.126-3.381-5.215-6.372-4.663-2.992 0.551-5.519 2.957-4.991 6.085 0.112 0.673 0.428 1.726 0.801 2.483l-5.434 8.109c-0.201 0.299-0.314 0.839-0.254 1.198l0.35 2.070c0.061 0.359 0.391 0.601 0.735 0.54l1.592-0.295c0.344-0.062 0.781-0.365 0.97-0.671l2.149-3.477 0.019-0.023 1.455-0.269 2.51-4.073c0.824 0.146 2.008 0.097 2.707-0.033 2.99-0.552 4.291-3.854 3.763-6.981zM15.924 6.565c-0.823 1.228-1.663 0.363-2.838-0.499-1.175-0.859-2.242-1.388-1.42-2.617 0.823-1.228 2.442-1.528 3.619-0.667 1.176 0.86 1.461 2.554 0.638 3.782z"></path>
</svg>
